<?xml version="1.0" encoding="UTF-8"?>
<svg width="27px" height="36px" viewBox="0 0 27 36" version="1.1" xmlns="http://www.w3.org/2000/svg" xmlns:xlink="http://www.w3.org/1999/xlink">
    <!-- Generator: Sketch 53.2 (72643) - https://sketchapp.com -->
    <title>Logo</title>
    <desc>Created with Sketch.</desc>
    <g id="Design" stroke="none" stroke-width="1" fill="none" fill-rule="evenodd">
        <g id="Dashboard" transform="translate(-60.000000, -50.000000)" fill="#575B7E">
            <g id="Sidebar">
                <g id="Logo" transform="translate(60.000000, 50.000000)">
                    <path d="M8.57647059,23.5152999 L4.49449204,23.5152999 C2.01225263,23.5152999 0,21.5030472 0,19.0208078 C0,16.5385684 2.01225263,14.5263158 4.49449204,14.5263158 L13.730508,14.5263158 L17.225,14.5263158 C17.7772847,14.5263158 18.225,14.974031 18.225,15.5263158 L18.225,31.1757353 C18.225,33.8401031 16.0651031,36 13.4007353,36 C10.7363675,36 8.57647059,33.8401031 8.57647059,31.1757353 L8.57647059,23.5152999 Z" id="Bottom"></path>
                    <path d="M9.775,0 L22.5789474,1.77635684e-15 C25.0206273,1.32782751e-15 27,1.97937268 27,4.42105263 L27,4.42105263 C27,6.86273258 25.0206273,8.84210526 22.5789474,8.84210526 L9.775,8.84210526 C9.22271525,8.84210526 8.775,8.39439001 8.775,7.84210526 L8.775,1 C8.775,0.44771525 9.22271525,5.45542273e-16 9.775,4.4408921e-16 Z" id="Top"></path>
                </g>
            </g>
        </g>
    </g>
</svg>