<?xml version="1.0" encoding="UTF-8"?>
<svg width="178px" height="46px" viewBox="0 0 178 46" version="1.1" xmlns="http://www.w3.org/2000/svg" xmlns:xlink="http://www.w3.org/1999/xlink">
    <!-- Generator: Sketch 53.2 (72643) - https://sketchapp.com -->
    <title>Logo</title>
    <desc>Created with Sketch.</desc>
    <g id="Design" stroke="none" stroke-width="1" fill="none" fill-rule="evenodd">
        <g id="Modal/Login" transform="translate(-50.000000, -44.000000)" fill="#FFFFFF">
            <g id="Background">
                <g id="Hero">
                    <g id="Nav" transform="translate(50.000000, 38.000000)">
                        <g id="Logotype" transform="translate(0.000000, 6.000000)">
                            <g id="Group">
                                <path d="M54.0721388,30.7839768 C52.6967007,30.7839768 51.512472,30.5000472 50.5194171,29.9321796 C49.5263622,29.364312 48.7630341,28.5710215 48.2294098,27.5522841 C47.6957854,26.5335468 47.4289773,25.3507449 47.4289773,24.0038428 C47.4289773,22.6512336 47.6957854,21.4655781 48.2294098,20.4468408 C48.7630341,19.4281034 49.5263622,18.6348129 50.5194171,18.0669453 C51.512472,17.4990777 52.6967007,17.2151481 54.0721388,17.2151481 C55.4532841,17.2151481 56.6389396,17.4990777 57.6291409,18.0669453 C58.6193422,18.6348129 59.3812435,19.4281034 59.9148678,20.4468408 C60.4484922,21.4655781 60.7153003,22.6512336 60.7153003,24.0038428 C60.7153003,25.3507449 60.4484922,26.5335468 59.9148678,27.5522841 C59.3812435,28.5710215 58.6193422,29.364312 57.6291409,29.9321796 C56.6389396,30.5000472 55.4532841,30.7839768 54.0721388,30.7839768 Z M54.0978211,27.6250507 C54.8454659,27.6250507 55.4247392,27.2883303 55.8356585,26.6148793 C56.2465777,25.9414282 56.4520343,25.0625308 56.4520343,23.9781605 C56.4520343,22.888083 56.2465777,22.0049052 55.8356585,21.3286006 C55.4247392,20.652296 54.8454659,20.3141487 54.0978211,20.3141487 C53.3216403,20.3141487 52.7266724,20.652296 52.3128995,21.3286006 C51.8991266,22.0049052 51.6922433,22.888083 51.6922433,23.9781605 C51.6922433,25.0625308 51.8991266,25.9414282 52.3128995,26.6148793 C52.7266724,27.2883303 53.3216403,27.6250507 54.0978211,27.6250507 Z M65.8449168,23.0364752 L65.8449168,30.5357143 L61.6586977,30.5357143 L61.6586977,17.3863636 L65.6394582,17.3863636 L65.6394582,19.8005022 L65.7849914,19.8005022 C66.0760592,19.0014926 66.5725792,18.3708551 67.2745663,17.9085709 C67.9765533,17.4462868 68.8126473,17.2151481 69.7828734,17.2151481 C70.7074417,17.2151481 71.5107198,17.4206047 72.1927316,17.8315239 C72.8747434,18.2424432 73.4055062,18.818863 73.7850358,19.5608005 C74.1645654,20.3027381 74.3514738,21.1673677 74.3457665,22.1547154 L74.3458934,30.5357143 L70.1595475,30.5357143 L70.1595475,22.9765498 C70.1652547,22.2460267 69.9811999,21.675314 69.6073775,21.2643948 C69.2335551,20.8534755 68.7156334,20.648019 68.0535968,20.648019 C67.3915602,20.648019 66.8593707,20.8591826 66.4570122,21.2815163 C66.0546538,21.70385 65.850624,22.2888305 65.8449168,23.0364752 Z M81.8895216,30.7839768 C79.8235109,30.7839768 78.1984066,30.1818749 77.0141602,28.9776532 C75.8299137,27.7734315 75.2377993,26.1183648 75.2377993,24.0124036 C75.2377993,22.6540872 75.5060342,21.4655781 76.0425122,20.4468408 C76.5789901,19.4281034 77.3351843,18.6348129 78.3111176,18.0669453 C79.2870508,17.4990777 80.4370368,17.2151481 81.76111,17.2151481 C83.0052822,17.2151481 84.1067576,17.4733956 85.0655692,17.9898983 C86.0243808,18.506401 86.7748679,19.264022 87.3170531,20.2627841 C87.8592382,21.2615462 88.1303267,22.4828712 88.1303267,23.9267959 L88.1303267,24.9712104 L79.3640929,24.9712104 L79.3640929,25.0825005 C79.3640929,25.8872174 79.5966583,26.5349762 80.0617961,27.0257965 C80.5269339,27.5166167 81.1618517,27.7620231 81.9665686,27.7620231 C82.5144609,27.7620231 82.991006,27.6464538 83.396218,27.4153117 C83.8014301,27.1841697 84.0839328,26.8517295 84.2437348,26.4179814 L88.0875228,26.5292715 C87.8478199,27.8191014 87.1857933,28.8506645 86.101423,29.6239917 C85.0170527,30.397319 83.6130996,30.7839768 81.8895216,30.7839768 Z M79.3640929,22.5399503 L84.235174,22.5399503 C84.2294668,21.8664993 84.0026085,21.3143348 83.5545924,20.8834403 C83.1065762,20.4525458 82.5372904,20.2371018 81.8467177,20.2371018 C81.1504379,20.2371018 80.5697378,20.4568261 80.1046,20.8962815 C79.6394622,21.3357368 79.392629,21.8836209 79.3640929,22.5399503 Z M89.0737241,30.5357143 L89.0737241,13.0032468 L101.041688,13.0032468 L101.041688,16.4446784 L93.3113078,16.4446784 L93.3113078,20.0402039 L100.279779,20.0402039 L100.279779,23.4901963 L93.3113078,23.4901963 L93.3113078,30.5357143 L89.0737241,30.5357143 Z M101.71114,30.5357143 L101.71114,17.3863636 L105.777509,17.3863636 L105.777509,19.7833807 L105.914481,19.7833807 C106.154184,18.9158845 106.545122,18.2695524 107.087307,17.8443651 C107.629492,17.4191778 108.26013,17.2065874 108.979239,17.2065874 C109.327378,17.2065874 109.658392,17.2493908 109.972288,17.334999 C110.286185,17.4206072 110.568688,17.5376033 110.819805,17.6859908 L109.587054,21.1274224 C109.404423,21.0418142 109.208954,20.9661948 109.00064,20.9005618 C108.792327,20.8349289 108.562615,20.8021129 108.311498,20.8021129 C107.655169,20.8021129 107.090163,21.0389587 106.616465,21.5126573 C106.142766,21.9863559 105.903067,22.6141398 105.897359,23.3960278 L105.897359,30.5357143 L101.71114,30.5357143 Z M114.417043,30.7582944 C113.161456,30.7582944 112.12704,30.4386954 111.313762,29.7994876 C110.500484,29.1602799 110.093851,28.1900684 110.093851,26.8888241 C110.093851,25.918598 110.316429,25.1467092 110.761592,24.5731344 C111.206754,23.9995596 111.800296,23.5743787 112.542233,23.2975789 C113.284171,23.0207791 114.097436,22.845285 114.982054,22.7710912 C116.106375,22.6740686 116.906799,22.554219 117.383352,22.4115387 C117.859904,22.2688584 118.098176,21.9977699 118.098176,21.598265 L118.098176,21.5554611 C118.098176,21.1160058 117.946937,20.7764318 117.644455,20.5367289 C117.341973,20.297026 116.933913,20.1771763 116.420264,20.1771763 C115.866665,20.1771763 115.421509,20.297026 115.084783,20.5367289 C114.748058,20.7764318 114.534041,21.1074451 114.442725,21.5297788 L110.581816,21.3928064 C110.747325,20.1942919 111.325171,19.1983983 112.315373,18.4050959 C113.305574,17.6117934 114.685272,17.2151481 116.454507,17.2151481 C117.573121,17.2151481 118.570441,17.3877887 119.446498,17.733075 C120.322555,18.0783614 121.013118,18.5763081 121.518206,19.2269303 C122.023294,19.8775525 122.275835,20.6679895 122.275835,21.598265 L122.275835,30.5357143 L118.337878,30.5357143 L118.337878,28.7037084 L118.235149,28.7037084 C117.504626,30.0734393 116.231936,30.7582944 114.417043,30.7582944 Z M115.70972,28.0188464 C116.377464,28.0188464 116.94675,27.819097 117.417595,27.4195921 C117.88844,27.0200873 118.123859,26.5007388 118.123859,25.861531 L118.123859,24.6116579 C117.889863,24.7372165 117.560276,24.8427984 117.135089,24.9284066 C116.709902,25.0140147 116.303269,25.0853538 115.915179,25.1424259 C114.676714,25.3307639 114.05749,25.8444053 114.05749,26.6833655 C114.05749,27.1171136 114.211583,27.4481269 114.519772,27.6764154 C114.827962,27.9047039 115.224607,28.0188464 115.70972,28.0188464 Z M129.759664,30.7839768 C128.372812,30.7839768 127.184303,30.4971937 126.194101,29.9236189 C125.2039,29.3500441 124.443425,28.5538999 123.912655,27.5351626 C123.381884,26.5164253 123.116503,25.3393304 123.116503,24.0038428 C123.116503,22.6569408 123.381884,21.4741389 123.912655,20.4554015 C124.443425,19.4366642 125.205327,18.6419468 126.198382,18.0712256 C127.191437,17.5005045 128.375665,17.2151481 129.751103,17.2151481 C130.972447,17.2151481 132.033972,17.4348725 132.935712,17.8743278 C133.837451,18.3137831 134.543708,18.9344331 135.054504,19.7362964 C135.565299,20.5381597 135.834961,21.4784088 135.863497,22.5570718 L131.951223,22.5570718 C131.871322,21.8836208 131.644463,21.3557116 131.270641,20.9733284 C130.896819,20.5909452 130.410286,20.3997565 129.811029,20.3997565 C129.080506,20.3997565 128.492672,20.703661 128.047509,21.311479 C127.602347,21.9192971 127.379769,22.8024749 127.379769,23.961039 C127.379769,25.1310174 127.60092,26.0199023 128.043229,26.6277204 C128.485538,27.2355385 129.074798,27.539443 129.811029,27.539443 C130.387457,27.539443 130.869709,27.3539614 131.2578,26.9829926 C131.64589,26.6120238 131.877029,26.0784075 131.951223,25.3821276 L135.863497,25.3821276 C135.829254,26.4664979 135.561019,27.4138809 135.058784,28.224305 C134.556549,29.0347291 133.856,29.6639398 132.957114,30.1119559 C132.058228,30.5599721 130.992422,30.7839768 129.759664,30.7839768 Z M144.229086,17.3863636 L144.229086,20.4682427 L141.857752,20.4682427 L141.857752,26.4008599 C141.857752,26.7889503 141.950492,27.0614656 142.135977,27.2184139 C142.321461,27.3753622 142.582562,27.4538352 142.919288,27.4538352 C143.07909,27.4538352 143.248877,27.4381406 143.428654,27.406751 C143.608431,27.3753613 143.743975,27.3482524 143.835291,27.3254236 L144.468788,30.3473772 C144.269036,30.4044494 143.989386,30.4743616 143.629832,30.5571162 C143.270278,30.6398708 142.836536,30.6955153 142.328594,30.7240513 C140.850426,30.7925379 139.701867,30.4986209 138.882882,29.8422915 C138.063897,29.1859621 137.660118,28.1929221 137.671533,26.8631417 L137.671533,20.4682427 L135.933695,20.4682427 L135.933695,17.3863636 L137.671533,17.3863636 L137.671533,14.2359984 L141.857752,14.2359984 L141.857752,17.3863636 L144.229086,17.3863636 Z M145.163923,30.5357143 L145.163923,17.3863636 L149.350142,17.3863636 L149.350142,30.5357143 L145.163923,30.5357143 Z M147.261313,15.8539849 C146.67347,15.8539849 146.168389,15.6585158 145.746056,15.2675718 C145.323722,14.8766278 145.112558,14.4043631 145.112558,13.8507635 C145.112558,13.2971639 145.323722,12.826326 145.746056,12.4382356 C146.168389,12.0501452 146.67347,11.8561029 147.261313,11.8561029 C147.854863,11.8561029 148.36137,12.0501452 148.78085,12.4382356 C149.200331,12.826326 149.410067,13.2971639 149.410067,13.8507635 C149.410067,14.4043631 149.200331,14.8766278 148.78085,15.2675718 C148.36137,15.6585158 147.854863,15.8539849 147.261313,15.8539849 Z M156.936701,30.7839768 C155.561263,30.7839768 154.377034,30.5000472 153.383979,29.9321796 C152.390924,29.364312 151.627596,28.5710215 151.093972,27.5522841 C150.560348,26.5335468 150.293539,25.3507449 150.293539,24.0038428 C150.293539,22.6512336 150.560348,21.4655781 151.093972,20.4468408 C151.627596,19.4281034 152.390924,18.6348129 153.383979,18.0669453 C154.377034,17.4990777 155.561263,17.2151481 156.936701,17.2151481 C158.317846,17.2151481 159.503502,17.4990777 160.493703,18.0669453 C161.483904,18.6348129 162.245806,19.4281034 162.77943,20.4468408 C163.313054,21.4655781 163.579863,22.6512336 163.579863,24.0038428 C163.579863,25.3507449 163.313054,26.5335468 162.77943,27.5522841 C162.245806,28.5710215 161.483904,29.364312 160.493703,29.9321796 C159.503502,30.5000472 158.317846,30.7839768 156.936701,30.7839768 Z M156.962383,27.6250507 C157.710028,27.6250507 158.289301,27.2883303 158.700221,26.6148793 C159.11114,25.9414282 159.316596,25.0625308 159.316596,23.9781605 C159.316596,22.888083 159.11114,22.0049052 158.700221,21.3286006 C158.289301,20.652296 157.710028,20.3141487 156.962383,20.3141487 C156.186202,20.3141487 155.591235,20.652296 155.177462,21.3286006 C154.763689,22.0049052 154.556805,22.888083 154.556805,23.9781605 C154.556805,25.0625308 154.763689,25.9414282 155.177462,26.6148793 C155.591235,27.2883303 156.186202,27.6250507 156.962383,27.6250507 Z M168.709479,23.0364752 L168.709479,30.5357143 L164.52326,30.5357143 L164.52326,17.3863636 L168.50402,17.3863636 L168.50402,19.8005022 L168.649554,19.8005022 C168.940621,19.0014926 169.437141,18.3708551 170.139128,17.9085709 C170.841116,17.4462868 171.67721,17.2151481 172.647436,17.2151481 C173.572004,17.2151481 174.375282,17.4206047 175.057294,17.8315239 C175.739306,18.2424432 176.270068,18.818863 176.649598,19.5608005 C177.029128,20.3027381 177.216036,21.1673677 177.210329,22.1547154 L177.210456,30.5357143 L173.02411,30.5357143 L173.02411,22.9765498 C173.029817,22.2460267 172.845762,21.675314 172.47194,21.2643948 C172.098117,20.8534755 171.580196,20.648019 170.918159,20.648019 C170.256122,20.648019 169.723933,20.8591826 169.321574,21.2815163 C168.919216,21.70385 168.715186,22.2888305 168.709479,23.0364752 Z" id="oneFraction" fill-rule="nonzero"></path>
                                <g id="Logo">
                                    <path d="M10.210084,29.9190199 L5.625,29.9190199 C2.51839828,29.9190199 0,27.4006217 0,24.2940199 L0,24.1071429 C0,21.0005411 2.51839828,18.4821429 5.625,18.4821429 L16.0714286,18.4821429 L20.8928571,18.4821429 C21.3366574,18.4821429 21.6964286,18.841914 21.6964286,19.2857143 L21.6964286,40.1785714 C21.6964286,43.2851731 19.1780303,45.8035714 16.0714286,45.8035714 L15.835084,45.8035714 C12.7284823,45.8035714 10.210084,43.2851731 10.210084,40.1785714 L10.210084,29.9190199 Z" id="Bottom"></path>
                                    <path d="M11.25,0 L26.5178571,0 C29.6244589,-5.70673477e-16 32.1428571,2.51839828 32.1428571,5.625 L32.1428571,5.625 C32.1428571,8.73160172 29.6244589,11.25 26.5178571,11.25 L11.25,11.25 C10.8061998,11.25 10.4464286,10.8902288 10.4464286,10.4464286 L10.4464286,0.803571429 C10.4464286,0.359771183 10.8061998,-6.95631335e-16 11.25,-7.77156117e-16 Z" id="Top"></path>
                                </g>
                            </g>
                        </g>
                    </g>
                </g>
            </g>
        </g>
    </g>
</svg>