<?xml version="1.0" encoding="UTF-8"?>
<svg width="20px" height="20px" viewBox="0 0 20 20" version="1.1" xmlns="http://www.w3.org/2000/svg" xmlns:xlink="http://www.w3.org/1999/xlink">
    <!-- Generator: Sketch 53.2 (72643) - https://sketchapp.com -->
    <title>Rewards</title>
    <desc>Created with Sketch.</desc>
    <g id="Design" stroke="none" stroke-width="1" fill="none" fill-rule="evenodd" stroke-linecap="round" stroke-linejoin="round">
        <g id="Dashboard" transform="translate(-62.000000, -385.000000)" stroke="#9E9E9E" stroke-width="1.8">
            <g id="Sidebar">
                <g id="Links" transform="translate(60.000000, 246.000000)">
                    <g id="Icons" transform="translate(0.000000, 22.000000)">
                        <g id="Rewards" transform="translate(3.000000, 118.000000)">
                            <polyline id="Path" points="16.2 9 16.2 18 1.8 18 1.8 9"></polyline>
                            <rect id="Rectangle" x="0" y="4.5" width="18" height="4.5"></rect>
                            <path d="M9,18 L9,4.5" id="Path"></path>
                            <path d="M9,4.5 L4.95,4.5 C3.70735931,4.5 2.7,3.49264069 2.7,2.25 C2.7,1.00735931 3.70735931,8.8817842e-16 4.95,8.8817842e-16 C8.1,8.8817842e-17 9,4.5 9,4.5 Z" id="Path"></path>
                            <path d="M9,4.5 L13.05,4.5 C14.2926407,4.5 15.3,3.49264069 15.3,2.25 C15.3,1.00735931 14.2926407,8.8817842e-16 13.05,8.8817842e-16 C9.9,8.8817842e-17 9,4.5 9,4.5 Z" id="Path"></path>
                        </g>
                    </g>
                </g>
            </g>
        </g>
    </g>
</svg>